<svg xmlns="http://www.w3.org/2000/svg" viewBox="0 0 750 500"><path fill="#f5f5f5" d="M255.46 275.21H92.48l12.05-116.1h164.36l-13.43 116.1z"/><path d="M110.4 255.73c-.15 0 1.54-17.48 3.76-39s4.14-39 4.28-39-1.54 17.47-3.76 39-4.14 39.01-4.28 39zM140.07 181.68a65.35 65.35 0 01-8.18.26 65.35 65.35 0 01-8.18-.26 63.13 63.13 0 018.18-.26 63.13 63.13 0 018.18.26zM209.68 181.68c0 .14-14.59.26-32.58.26s-32.59-.12-32.59-.26 14.59-.26 32.59-.26 32.58.11 32.58.26zM138.14 222.93a63.13 63.13 0 01-8.18.26 63.13 63.13 0 01-8.18-.26 65.35 65.35 0 018.18-.26 65.35 65.35 0 018.18.26zM207.75 222.93c0 .15-14.59.26-32.58.26s-32.59-.11-32.59-.26 14.59-.26 32.59-.26 32.58.12 32.58.26zM185.55 242c0 .15-14.59.26-32.58.26s-32.59-.11-32.59-.26 14.59-.26 32.59-.26 32.58.07 32.58.26zM147.28 193.33c0 .14-5.15.26-11.51.26s-11.51-.12-11.51-.26 5.16-.27 11.51-.27 11.51.12 11.51.27zM146.7 210.4c0 .15-5.16.26-11.51.26s-11.51-.11-11.51-.26 5.15-.26 11.51-.26 11.51.12 11.51.26zM166.16 234.81c0 .14-5.16.26-11.51.26s-11.51-.12-11.51-.26 5.15-.26 11.51-.26 11.51.11 11.51.26zM231 193.33c0 .14-13.16.26-29.4.26s-29.41-.12-29.41-.26 13.17-.27 29.41-.27 29.4.12 29.4.27zM212.87 211.39c0 .15-13.16.26-29.4.26s-29.4-.11-29.4-.26 13.16-.26 29.4-.26 29.4.12 29.4.26zM233.11 234.81c0 .14-13.17.26-29.4.26s-29.41-.12-29.41-.26 13.17-.26 29.41-.26 29.4.11 29.4.26zM179.42 255.73c0 .14-13.17.26-29.41.26s-29.4-.12-29.4-.26 13.16-.26 29.4-.26 29.41.11 29.41.26zM244.45 255.73c0 .14-13.17.26-29.4.26s-29.41-.12-29.41-.26 13.16-.26 29.41-.26 29.4.11 29.4.26zM179.41 262.53c0 .15-13.16.26-29.4.26s-29.41-.11-29.41-.26 13.17-.26 29.41-.26 29.4.12 29.4.26zM182.27 198.23c0 .14-13.16.26-29.4.26s-29.41-.12-29.41-.26 13.17-.26 29.41-.26 29.4.11 29.4.26zM166.59 193.39a56 56 0 01-7.57.26 56.13 56.13 0 01-7.58-.26 54.23 54.23 0 017.58-.26 54.13 54.13 0 017.57.26zM136.22 228.54a56.13 56.13 0 01-7.58.26 56 56 0 01-7.57-.26 56 56 0 017.57-.26 56.13 56.13 0 017.58.26zM135.86 234.81a56 56 0 01-7.57.26 56.13 56.13 0 01-7.58-.26 54.23 54.23 0 017.58-.26 54.13 54.13 0 017.57.26zM267.09 171.39c0 .15-36.65.26-81.85.26s-81.87-.11-81.87-.26 36.65-.26 81.87-.26 81.85.12 81.85.26z" fill="#e0e0e0"/><circle cx="114.42" cy="165.86" r="1.94" fill="#fff"/><circle cx="122.75" cy="165.86" r="1.94" fill="#fff"/><circle cx="131.08" cy="165.86" r="1.94" fill="#fff"/><path fill="#f5f5f5" d="M678.65 217.16H515.67l12.05-116.09h164.36l-13.43 116.09z"/><path d="M533.59 197.68c-.14 0 1.54-17.48 3.76-39s4.14-39 4.28-38.94-1.54 17.47-3.76 39-4.14 38.95-4.28 38.94zM563.26 123.63a128.81 128.81 0 01-16.36 0 128.81 128.81 0 0116.36 0zM632.88 123.63c0 .14-14.59.26-32.59.26s-32.59-.12-32.59-.26 14.59-.26 32.59-.26 32.59.12 32.59.26zM561.34 164.89a129 129 0 01-16.37 0 129 129 0 0116.37 0zM631 164.89c0 .14-14.59.26-32.59.26s-32.59-.12-32.59-.26 14.59-.26 32.59-.26 32.59.11 32.59.26zM608.75 183.91c0 .14-14.59.26-32.59.26s-32.59-.12-32.59-.26 14.59-.26 32.59-.26 32.59.11 32.59.26zM570.48 135.28c0 .14-5.16.26-11.51.26s-11.51-.12-11.51-.26 5.15-.28 11.54-.28 11.48.13 11.48.28zM569.89 152.35c0 .15-5.15.26-11.51.26s-11.51-.11-11.51-.26 5.15-.26 11.51-.26 11.51.12 11.51.26zM589.35 176.76c0 .14-5.15.26-11.51.26s-11.51-.12-11.51-.26 5.15-.26 11.51-.26 11.51.12 11.51.26zM654.22 135.28c0 .14-13.17.26-29.41.26s-29.4-.12-29.4-.26 13.16-.26 29.4-.26 29.41.11 29.41.26zM636.07 153.34c0 .15-13.17.26-29.41.26s-29.4-.11-29.4-.26 13.16-.26 29.4-.26 29.41.12 29.41.26zM656.3 176.76c0 .14-13.16.26-29.4.26s-29.4-.12-29.4-.26 13.16-.26 29.4-.26 29.4.12 29.4.26zM602.61 197.68c0 .14-13.17.26-29.4.26s-29.41-.12-29.41-.26 13.16-.26 29.41-.26 29.4.11 29.4.26zM667.64 197.68c0 .14-13.16.26-29.4.26s-29.41-.12-29.41-.26 13.17-.26 29.41-.26 29.4.11 29.4.26zM602.6 204.48c0 .15-13.16.26-29.4.26s-29.4-.11-29.4-.26 13.16-.26 29.4-.26 29.4.12 29.4.26zM605.47 140.18c0 .14-13.17.26-29.41.26s-29.4-.12-29.4-.26 13.16-.26 29.4-.26 29.41.08 29.41.26zM589.78 135.34a110.33 110.33 0 01-15.14 0 110.33 110.33 0 0115.14 0zM559.41 170.49a110.48 110.48 0 01-15.15 0 110.48 110.48 0 0115.15 0zM559.05 176.76a110.33 110.33 0 01-15.14 0 110.33 110.33 0 0115.14 0zM690.29 113.34c0 .15-36.66.26-81.86.26s-81.86-.11-81.86-.26 36.64-.26 81.86-.26 81.86.12 81.86.26z" fill="#e0e0e0"/><circle cx="537.61" cy="107.81" r="1.94" fill="#fff"/><circle cx="545.94" cy="107.81" r="1.94" fill="#fff"/><circle cx="554.27" cy="107.81" r="1.94" fill="#fff"/><path fill="#ebebeb" d="M336.82 141.36H235.31l7.5-72.31h102.37l-8.36 72.31z"/><path d="M246.47 129.22c-.14 0 .86-10.89 2.24-24.29s2.62-24.26 2.77-24.25-.86 10.9-2.25 24.3-2.62 24.26-2.76 24.24zM265 83.1a50.05 50.05 0 01-10.19 0 50.05 50.05 0 0110.19 0zM308.31 83.1c0 .15-9.09.26-20.3.26s-20.3-.11-20.3-.26 9.09-.26 20.3-.26 20.3.16 20.3.26zM263.75 108.8a50.05 50.05 0 01-10.19 0 50.05 50.05 0 0110.19 0zM307.11 108.8c0 .14-9.09.26-20.3.26s-20.3-.12-20.3-.26 9.09-.26 20.3-.26 20.3.12 20.3.26zM293.28 120.64c0 .15-9.09.26-20.3.26s-20.29-.11-20.29-.26 9.08-.26 20.29-.26 20.3.12 20.3.26zM269.44 90.36a50.28 50.28 0 01-7.17.26 50.08 50.08 0 01-7.16-.26 48.38 48.38 0 017.16-.26 48.58 48.58 0 017.17.26zM269.08 101a48.58 48.58 0 01-7.17.26 48.58 48.58 0 01-7.17-.26 50.28 50.28 0 017.17-.26 50.28 50.28 0 017.17.26zM281.2 116.19a48.58 48.58 0 01-7.17.26 48.58 48.58 0 01-7.17-.26 50.28 50.28 0 017.17-.26 50.28 50.28 0 017.17.26zM321.6 90.36c0 .14-8.2.26-18.31.26S285 90.5 285 90.36s8.2-.26 18.32-.26 18.28.11 18.28.26zM310.29 101.61c0 .14-8.2.26-18.31.26s-18.31-.12-18.31-.26 8.2-.26 18.31-.26 18.31.12 18.31.26zM322.9 116.19c0 .15-8.2.26-18.31.26s-18.32-.11-18.32-.26 8.2-.26 18.32-.26 18.31.12 18.31.26zM289.46 129.22c0 .15-8.2.26-18.32.26s-18.31-.11-18.31-.26 8.2-.26 18.31-.26 18.32.12 18.32.26zM330 129.22c0 .15-8.2.26-18.31.26s-18.32-.11-18.32-.26 8.2-.26 18.32-.26 18.31.12 18.31.26zM289.45 133.46c0 .15-8.2.26-18.31.26s-18.31-.11-18.31-.26 8.19-.26 18.31-.26 18.31.12 18.31.26zM291.23 93.41c0 .15-8.2.26-18.31.26s-18.31-.11-18.31-.26 8.2-.26 18.31-.26 18.31.12 18.31.26zM281.47 90.4a43 43 0 01-9.44 0 43 43 0 019.44 0zM262.55 112.29a42.88 42.88 0 01-9.43 0 42.88 42.88 0 019.43 0zM262.33 116.19a43 43 0 01-9.44 0 43 43 0 019.44 0zM344.06 76.7c0 .14-22.82.26-51 .26s-51-.12-51-.26 22.82-.26 51-.26 51 .11 51 .26z" fill="#e0e0e0"/><path d="M250.18 73.25A1.21 1.21 0 11249 72a1.21 1.21 0 011.18 1.25zM255.37 73.25a1.21 1.21 0 11-1.21-1.25 1.21 1.21 0 011.21 1.25zM260.56 73.25a1.21 1.21 0 11-1.21-1.25 1.21 1.21 0 011.21 1.25z" fill="#fff"/><path fill="#ebebeb" d="M561.58 267.55h51.12v165.46h-51.12z"/><path fill="#e0e0e0" d="M612.7 267.58h43.4v165.4h-43.4zM565.57 274.25h41.01v35.64h-41.01zM565.57 313.93h41.01v35.64h-41.01zM565.57 353.61h41.01v35.64h-41.01zM565.57 393.3h41.01v35.64h-41.01z"/><path d="M586.08 280.83a1.43 1.43 0 11-1.43-1.42 1.43 1.43 0 011.43 1.42zM586.08 321a1.43 1.43 0 11-1.43-1.42 1.43 1.43 0 011.43 1.42zM586.08 361.12a1.43 1.43 0 11-1.43-1.43 1.43 1.43 0 011.43 1.43zM586.08 401.26a1.43 1.43 0 11-1.43-1.42 1.43 1.43 0 011.43 1.42z" fill="#fafafa"/><path fill="#e0e0e0" d="M561.58 433.01h5.91v33.19h-5.91zM606.58 433.01h5.91v33.19h-5.91zM649.55 433.01h5.91v33.19h-5.91z"/><path d="M132.14 456.83c-1.51-1.29-4.89-5.39-2.29-10.16 1-1.74 3-2.61 4.83-3.38a19.86 19.86 0 005.28-2.72c2.87-2.43 3.66-6.47 5.56-9.71 2.19-3.71 6.27-6.5 10.58-6.3 4.93.22 9 4.23 10.91 8.8s1.93 9.65 2 14.59c0 2.73-.1 5.81-2.12 7.66-1.85 1.7-4.65 1.72-7.17 1.64l-27-.82" fill="#f5f5f5"/><path d="M183.71 383H112.8l12.78 75.81a8.45 8.45 0 006 6.75l.25.07a6.45 6.45 0 00.63.16 8.58 8.58 0 001.54.21v.07l.35-.05h31.6a9 9 0 001.74-.18 8.5 8.5 0 007.17-7.41l6.14-52.24.28-2.08 2.43-20.69zm-13.38 48.36h-7.27l.73-22h8.43zm2.6-22h7l-2.6 22H171zm-20.79 46.39l-.44-19.11h10.48l-.64 19.11zm-11.33-19.11H151l.45 19.11h-9.15zm.79 19.11h-8.54c-.81-5.16-1.87-11.87-3-19.11h10.06zm-1.2-24.39l-1.72-22h11.68l.51 22zm11.18 0l-.51-22h12l-.74 22zm-.64-27.28l-.47-20.38h13.47l-.68 20.38zm-.7 0h-12l-1.59-20.38h13.09zm-12.68 0H124.9c-.45-2.81-.88-5.48-1.26-7.87-1.32-8.24-1.82-11.34-2.09-12.51H136zm.42 5.28l1.71 22h-10.47c-.35-2.23-.71-4.49-1.07-6.75-.82-5.19-1.64-10.39-2.41-15.25zm-9.47 22h-6.85l-3.7-22H125zm.83 5.28c1 6.61 2.07 13.13 3 19.11h-6.58l-3.22-19.11zm32.9 19.11l.64-19.11h7l-1.64 19.11zm1.76-51.64l.68-20.38h9.77l-1.74 20.38zm-43.09-20.38c.28 1.48 1.57 9.5 3.31 20.38h-7.12l-3.44-20.38zm53.55 72H169l1.64-19.11h6.09zm6.09-51.67h-7.14l1.75-20.38h7.79z" fill="#e0e0e0"/><g><path d="M651 466.19c0 .15-129.42.26-289 .26s-289-.11-289-.26 129.39-.26 289.05-.26 288.95.12 288.95.26z" fill="#263238"/></g><g><path fill="#263238" d="M396.18 249.88h-110.9l8.2-79h111.84l-9.14 79z"/><path fill="#455a64" d="M390.54 249.88H279.63l8.2-79h111.84l-9.13 79z"/><path fill="#f5f5f5" d="M386.42 246.3H283.51l7.61-73.3H394.9l-8.48 73.3z"/><path d="M294.67 234.08c-.15 0 .87-11.05 2.28-24.63s2.65-24.6 2.79-24.58-.87 11-2.28 24.63-2.65 24.59-2.79 24.58zM313.4 187.32a51.43 51.43 0 01-10.33 0 51.43 51.43 0 0110.33 0z" fill="#263238"/><path d="M357.36 187.32c0 .14-9.21.26-20.58.26s-20.57-.12-20.57-.26 9.21-.26 20.57-.26 20.58.12 20.58.26z" fill="#407bff"/><path d="M312.19 213.37a51.53 51.53 0 01-10.34 0 51.53 51.53 0 0110.34 0z" fill="#263238"/><path d="M356.14 213.37c0 .15-9.21.26-20.57.26s-20.58-.11-20.58-.26 9.21-.26 20.58-.26 20.57.12 20.57.26zM342.12 225.38c0 .14-9.21.26-20.57.26s-20.58-.12-20.58-.26 9.21-.26 20.58-.26 20.57.12 20.57.26zM318 194.67a49.09 49.09 0 01-7.27.27 49.09 49.09 0 01-7.27-.27 51.75 51.75 0 017.27-.26 51.75 51.75 0 017.27.26zM317.59 205.46a51.75 51.75 0 01-7.27.26 51.75 51.75 0 01-7.27-.26 50 50 0 017.27-.26 50 50 0 017.27.26zM329.88 220.87a51.75 51.75 0 01-7.27.26 51.63 51.63 0 01-7.27-.26 49.88 49.88 0 017.27-.26 50 50 0 017.27.26z" fill="#407bff"/><path d="M370.83 194.67c0 .15-8.31.27-18.56.27s-18.57-.12-18.57-.27 8.31-.26 18.57-.26 18.56.12 18.56.26zM359.37 206.08c0 .15-8.31.26-18.56.26s-18.57-.11-18.57-.26 8.31-.26 18.57-.26 18.56.12 18.56.26zM372.15 220.87c0 .14-8.31.26-18.56.26S335 221 335 220.87s8.31-.26 18.57-.26 18.58.11 18.58.26zM338.25 234.08c0 .14-8.32.26-18.57.26s-18.57-.12-18.57-.26 8.32-.26 18.57-.26 18.57.11 18.57.26zM379.31 234.08c0 .14-8.31.26-18.56.26s-18.57-.12-18.57-.26 8.31-.26 18.57-.26 18.56.11 18.56.26zM338.24 238.37c0 .15-8.31.26-18.56.26s-18.57-.11-18.57-.26 8.31-.26 18.57-.26 18.56.12 18.56.26zM340.05 197.77c0 .14-8.31.26-18.56.26s-18.57-.12-18.57-.26 8.31-.26 18.57-.26 18.56.12 18.56.26z" fill="#263238"/><path d="M330.15 194.72a44.16 44.16 0 01-9.57 0 42.54 42.54 0 019.57 0zM311 216.91a44.07 44.07 0 01-9.56 0 44.07 44.07 0 019.56 0zM310.74 220.87a44.07 44.07 0 01-9.56 0 44.07 44.07 0 019.56 0z" fill="#455a64"/><path d="M393.61 180.83c0 .14-23.14.26-51.69.26s-51.69-.12-51.69-.26 23.14-.27 51.69-.27 51.69.12 51.69.27z" fill="#263238"/><path d="M298.43 177.33a1.23 1.23 0 11-1.22-1.23 1.22 1.22 0 011.22 1.23zM303.69 177.33a1.23 1.23 0 11-1.22-1.23 1.22 1.22 0 011.22 1.23zM309 177.33a1.23 1.23 0 11-1.22-1.23 1.22 1.22 0 011.22 1.23z" fill="#fff"/><path fill="#263238" d="M541.87 252.28H425.21l8.62-83.11h117.66l-9.62 83.11z"/><path fill="#455a64" d="M535.93 252.28H419.27l8.63-83.11h117.65l-9.62 83.11z"/><path fill="#ebebeb" d="M531.61 248.51H423.36l8-77.11h109.17l-8.92 77.11z"/><path d="M435.15 234.49c-.14 0 .94-11.62 2.41-25.91s2.79-25.87 2.93-25.85-.94 11.61-2.41 25.91-2.79 25.86-2.93 25.85zM454.86 185.31a56.94 56.94 0 01-10.87 0 54.84 54.84 0 0110.87 0z" fill="#263238"/><path d="M501.1 185.31c0 .14-9.69.26-21.65.26s-21.64-.12-21.64-.26 9.69-.27 21.64-.27 21.65.12 21.65.27z" fill="#407bff"/><path d="M453.58 212.71a56.94 56.94 0 01-10.87 0 56.94 56.94 0 0110.87 0z" fill="#263238"/><path d="M499.82 212.71c0 .14-9.7.26-21.65.26s-21.64-.12-21.64-.26 9.69-.26 21.64-.26 21.65.12 21.65.26zM485.07 225.34c0 .15-9.69.26-21.64.26s-21.65-.11-21.65-.26 9.69-.26 21.65-.26 21.64.12 21.64.26zM459.65 193a112.53 112.53 0 01-15.29 0 112.53 112.53 0 0115.29 0zM459.26 204.38a108.37 108.37 0 01-15.29 0 112.53 112.53 0 0115.29 0zM472.19 220.6a112.53 112.53 0 01-15.29 0 112.53 112.53 0 0115.29 0z" fill="#407bff"/><path d="M515.27 193c0 .15-8.74.26-19.53.26s-19.53-.11-19.53-.26 8.74-.26 19.53-.26 19.53.16 19.53.26zM503.22 205c0 .15-8.75.26-19.53.26s-19.53-.11-19.53-.26 8.74-.26 19.53-.26 19.53.16 19.53.26zM516.66 220.6c0 .14-8.75.26-19.53.26s-19.53-.12-19.53-.26 8.74-.26 19.53-.26 19.53.11 19.53.26zM481 234.49c0 .14-8.74.26-19.53.26s-19.53-.12-19.53-.26 8.75-.26 19.53-.26 19.53.12 19.53.26zM524.19 234.49c0 .14-8.75.26-19.53.26s-19.53-.12-19.53-.26 8.74-.26 19.53-.26 19.53.12 19.53.26zM481 239c0 .14-8.74.26-19.53.26s-19.53-.12-19.53-.26 8.74-.26 19.53-.26 19.53.13 19.53.26zM482.89 196.3c0 .14-8.74.26-19.53.26s-19.53-.12-19.53-.26 8.74-.26 19.53-.26 19.53.12 19.53.26z" fill="#263238"/><path d="M472.47 193.08a48.79 48.79 0 01-10.06 0 48.79 48.79 0 0110.06 0zM452.3 216.43a48.79 48.79 0 01-10.06 0 48.79 48.79 0 0110.06 0zM452.06 220.6a48.79 48.79 0 01-10.06 0 48.79 48.79 0 0110.06 0z" fill="#455a64"/><path d="M539.23 178.47c0 .15-24.34.26-54.37.26s-54.37-.11-54.37-.26 24.34-.26 54.37-.26 54.37.12 54.37.26z" fill="#263238"/><path d="M439.11 174.8a1.29 1.29 0 11-1.29-1.29 1.28 1.28 0 011.29 1.29zM444.64 174.8a1.29 1.29 0 11-1.29-1.29 1.28 1.28 0 011.29 1.29zM450.18 174.8a1.29 1.29 0 11-1.29-1.29 1.28 1.28 0 011.29 1.29z" fill="#fff"/><path fill="#263238" d="M475.31 153.9H363.9l8.24-79.36h112.35l-9.18 79.36z"/><path fill="#455a64" d="M469.64 153.9H358.23l8.24-79.36h112.35l-9.18 79.36z"/><path fill="#fafafa" d="M465.5 150.31H362.13l7.64-73.64h104.25l-8.52 73.64z"/><path d="M373.49 138c-.14 0 .89-11.1 2.3-24.74s2.66-24.71 2.81-24.69-.89 11.09-2.3 24.74-2.66 24.69-2.81 24.69zM392.32 91a51.93 51.93 0 01-10.38 0 51.93 51.93 0 0110.38 0z" fill="#263238"/><path d="M436.47 91c0 .14-9.25.26-20.67.26s-20.67-.12-20.67-.26 9.25-.26 20.67-.26 20.67.09 20.67.26z" fill="#407bff"/><path d="M391.09 117.15a51.93 51.93 0 01-10.38 0 51.93 51.93 0 0110.38 0z" fill="#263238"/><path d="M435.25 117.15c0 .14-9.26.26-20.67.26s-20.67-.12-20.67-.26 9.25-.26 20.67-.26 20.67.11 20.67.26zM421.17 129.21c0 .14-9.26.26-20.67.26s-20.67-.12-20.67-.26 9.25-.26 20.67-.26 20.67.12 20.67.26zM396.89 98.37a102.61 102.61 0 01-14.6 0 102.61 102.61 0 0114.6 0zM396.52 109.2a102.61 102.61 0 01-14.6 0 102.61 102.61 0 0114.6 0zM408.86 124.68a102.61 102.61 0 01-14.6 0 102.61 102.61 0 0114.6 0z" fill="#407bff"/><path d="M450 98.37c0 .14-8.35.26-18.65.26s-18.65-.12-18.65-.26 8.34-.26 18.65-.26 18.65.11 18.65.26zM438.49 109.83c0 .14-8.35.26-18.65.26s-18.65-.12-18.65-.26 8.35-.26 18.65-.26 18.65.11 18.65.26zM451.33 124.68c0 .14-8.35.26-18.65.26s-18.65-.12-18.65-.26 8.35-.26 18.65-.26 18.65.11 18.65.26zM417.27 138c0 .14-8.35.26-18.65.26S380 138.09 380 138s8.35-.26 18.65-.26 18.62.06 18.62.26zM458.52 138c0 .14-8.35.26-18.65.26s-18.65-.12-18.65-.26 8.35-.26 18.65-.26 18.65.06 18.65.26zM417.27 142.26c0 .15-8.35.26-18.65.26s-18.65-.11-18.65-.26 8.35-.26 18.65-.26 18.65.12 18.65.26zM419.08 101.48c0 .14-8.35.26-18.65.26s-18.65-.12-18.65-.26 8.35-.26 18.65-.26 18.65.11 18.65.26z" fill="#263238"/><path d="M409.14 98.41a44.53 44.53 0 01-9.61 0 44.53 44.53 0 019.61 0zM389.87 120.7a44.53 44.53 0 01-9.61 0 44.53 44.53 0 019.61 0zM389.65 124.68a44.53 44.53 0 01-9.61 0 44.53 44.53 0 019.61 0z" fill="#455a64"/><path d="M472.88 84.45c0 .15-23.24.27-51.91.27S369 84.6 369 84.45s23.24-.26 51.93-.26 51.95.12 51.95.26z" fill="#263238"/><circle cx="376.05" cy="80.94" r="1.23" fill="#fff"/><circle cx="381.33" cy="80.94" r="1.23" fill="#fff"/><circle cx="386.61" cy="80.94" r="1.23" fill="#fff"/></g><g><path fill="#263238" d="M277.9 453.69h8.68v11.84h-8.68zM410.12 315.53h-77.01v-3.75h77.01z"/><path fill="#263238" d="M422.05 315.53l14.45-54.13h-60.14l-13.08 54.13h58.77z"/><path fill="#f5f5f5" d="M366.89 311.44h53.72l12.5-47.54h-54l-12.22 47.54z"/><path fill="#e0e0e0" d="M380.45 273.11l-3.33 13.46h35.62l3.8-13.46h-36.09z"/><path d="M409 271.33c0 .15-6.24.26-13.95.26s-13.95-.11-13.95-.26 6.24-.26 13.95-.26 13.95.12 13.95.26z" fill="#455a64"/><path d="M392.79 275.68a61 61 0 01-11.25 0 61 61 0 0111.25 0zM401.81 275.47a25.89 25.89 0 01-7.32 0 25.89 25.89 0 017.32 0z" fill="#263238"/><path d="M412 278.12c0 .15-6.89.27-15.39.27s-15.39-.12-15.39-.27 6.89-.26 15.39-.26 15.39.14 15.39.26z" fill="#455a64"/><path d="M390.56 280.35a47.92 47.92 0 01-10 0 47.92 47.92 0 0110 0z" fill="#407bff"/><path d="M409.24 283.54c0 .14-6.39.26-14.27.26s-14.28-.12-14.28-.26 6.39-.26 14.28-.26 14.27.11 14.27.26zM388.23 290.43a58.73 58.73 0 01-11 0 58.73 58.73 0 0111 0z" fill="#455a64"/><path d="M397.67 290.48a14.38 14.38 0 01-3.77.23 13.45 13.45 0 01-3.76-.3 14.38 14.38 0 013.77-.23 13.45 13.45 0 013.76.3zM403 290.22c0 .15-.72.26-1.6.26s-1.59-.11-1.59-.26.72-.26 1.59-.26 1.6.12 1.6.26z" fill="#263238"/><path d="M380.91 293.19c0 .15-.79.26-1.76.26s-1.75-.11-1.75-.26.79-.26 1.75-.26 1.76.12 1.76.26z" fill="#407bff"/><path d="M391.41 293.19a33.89 33.89 0 01-8.38 0 33.89 33.89 0 018.38 0z" fill="#263238"/><path d="M416.45 292.87c0 .15-5 .26-11.19.26s-11.2-.11-11.2-.26 5-.26 11.2-.26 11.19.12 11.19.26z" fill="#455a64"/><path d="M380.37 296.06c0 .14-.8.26-1.8.26s-1.8-.12-1.8-.26.8-.26 1.8-.26 1.8.11 1.8.26zM385.89 296a4.65 4.65 0 01-2.17.26 4.71 4.71 0 01-2.18-.26 4.87 4.87 0 012.18-.26 4.81 4.81 0 012.17.26z" fill="#263238"/><path d="M402.34 295.74a95.85 95.85 0 01-14.11 0 95.85 95.85 0 0114.11 0zM393.64 300.73a71.33 71.33 0 01-8.54.26 71.19 71.19 0 01-8.54-.26 68.78 68.78 0 018.54-.26 68.91 68.91 0 018.54.26z" fill="#455a64"/><path d="M403.61 300.51a28.93 28.93 0 01-7.74 0 28.93 28.93 0 017.74 0z" fill="#407bff"/><path d="M418.42 300.51a79.39 79.39 0 01-12.84 0 79.39 79.39 0 0112.84 0zM415 271.12c0 .15-.6.26-1.33.26s-1.33-.11-1.33-.26.6-.26 1.33-.26 1.33.14 1.33.26z" fill="#263238"/><path d="M387.91 269.32a16.53 16.53 0 01-5.84 0 16.53 16.53 0 015.84 0z" fill="#407bff"/><path d="M432.21 267.32h-54l.91-3.42h54z" fill="#ebebeb"/><circle cx="381.39" cy="265.63" r=".59" fill="#fafafa"/><circle cx="383.42" cy="265.63" r=".59" fill="#fafafa"/><circle cx="385.45" cy="265.63" r=".59" fill="#fafafa"/><path fill="#263238" d="M369.98 320.57h128.04v74.71H369.98z"/><path fill="#455a64" d="M369.98 320.57h58.33v74.71h-58.33z"/><path d="M422.37 345.94a1.59 1.59 0 010-.38v-1.09c0-1 0-2.37-.05-4.15 0-3.61-.06-8.77-.1-15.13l.19.19-46.92.07.26-.26v20.73l-.24-.24 33.61.11 9.76.07h3.55-3.44l-9.71.06-33.77.12h-.25v-.25-20.58l.26-.26 46.92.07h.19v.19c-.05 6.41-.08 11.61-.11 15.24v5.17c-.14.21-.15.38-.15.32z" fill="#263238"/><path d="M400.9 335.57a2.6 2.6 0 00-.9-1.44 1.82 1.82 0 00-1.69-.21 1.78 1.78 0 00-1.14 1.65 1.8 1.8 0 001.14 1.65A1.85 1.85 0 00400 337a2.66 2.66 0 00.9-1.44s.09.18 0 .51a2 2 0 01-.71 1.22 2.17 2.17 0 01-2.08.37 2.22 2.22 0 010-4.2 2.17 2.17 0 012.08.36 2 2 0 01.71 1.22c.1.35.03.53 0 .53zM422.37 368.79a1.81 1.81 0 010-.39v-1.09c0-1 0-2.37-.05-4.15 0-3.6-.06-8.76-.1-15.13l.19.19-46.92.08.26-.26V368.78l-.24-.25 33.61.12 9.76.07h3.55-3.44l-9.71.07-33.77.12h-.25v-.25-20.61c-.06 0 .49-.5.26-.27l46.92.08h.19v.14c-.05 6.42-.08 11.62-.11 15.25v5.16c-.14.27-.15.39-.15.38z" fill="#263238"/><path d="M400.9 358.41a2.66 2.66 0 00-.9-1.41 1.79 1.79 0 00-2.83 1.44 1.78 1.78 0 001.14 1.65 1.82 1.82 0 001.69-.21 2.63 2.63 0 00.9-1.44s.09.18 0 .51a2 2 0 01-.71 1.22 2.17 2.17 0 01-2.08.37 2.22 2.22 0 010-4.2 2.17 2.17 0 012.08.37 2 2 0 01.71 1.22c.1.3.03.48 0 .48zM422.37 391.63a1.59 1.59 0 010-.38v-1.09c0-1 0-2.37-.05-4.15 0-3.61-.06-8.77-.1-15.13l.19.19-46.92.07.26-.26v20.73l-.24-.24 33.61.11 9.76.07h3.55-3.44l-9.71.06-33.77.12h-.25v-.25-20.58l.26-.26 46.92.07h.19v.19c-.05 6.41-.08 11.61-.11 15.24v5.17c-.14.21-.15.33-.15.32z" fill="#263238"/><path d="M400.9 381.26a2.6 2.6 0 00-.9-1.44 1.82 1.82 0 00-1.69-.21 1.78 1.78 0 00-1.14 1.65 1.79 1.79 0 002.83 1.44 2.66 2.66 0 00.9-1.44s.09.18 0 .51a2 2 0 01-.71 1.22 2.17 2.17 0 01-2.08.37 2.22 2.22 0 010-4.2 2.17 2.17 0 012.08.36 2 2 0 01.71 1.22c.1.34.03.52 0 .52zM284.71 456.09l-85.57-.07V320.57h85.57v135.52z" fill="#263238"/><path fill="#263238" d="M195.01 315.36h307.66v7.1H195.01z"/><path fill="#263238" d="M199.14 322.46h9.54v143.7h-9.54zM488.48 322.46h9.54V466.2h-9.54zM428.31 322.46h9.54V466.2h-9.54z"/><path d="M238.27 315.36c0 .14-9.17.26-20.48.26s-20.48-.12-20.48-.26 9.17-.26 20.48-.26 20.48.11 20.48.26z" fill="#455a64"/><path d="M328.23 459.16l.24-10.27-19.25-.58-.51 15 1.19.11c5.3.46 27 1.94 30.57 1 4-1.08-12.24-5.26-12.24-5.26z" fill="#407bff"/><path d="M336.15 461.49s5.69 1.82 4.94 2.75-22.72.24-32.38-.9v-.43l25.63 1s.66-2.41 1.81-2.42z" fill="#fff" opacity=".4"/><path d="M308.45 462.89h.33l1 .09 3.49.26c2.95.2 7 .41 11.54.56s8.6.18 11.56.17h4.83-4.83c-2.95 0-7-.1-11.55-.24s-8.59-.33-11.54-.49l-3.5-.18h-1z" fill="#263238"/><path d="M334.36 464.21a7.66 7.66 0 01.71-1.65 8.33 8.33 0 011.23-1.3 3.12 3.12 0 00-1.94 2.95zM328.77 461.16c.05 0 .34-.29.63-.72s.49-.82.44-.85-.34.28-.63.72-.49.81-.44.85zM327.24 460.29s.35-.15.69-.44.58-.56.54-.61-.35.15-.69.44-.58.56-.54.61zM326.31 458.44a2.45 2.45 0 001 .16 2.19 2.19 0 001-.08 2.5 2.5 0 00-1-.16c-.55-.02-1 .01-1 .08zM326 457.15a2.05 2.05 0 001.11.36 2 2 0 001.16-.12 5.39 5.39 0 00-1.14-.11 5.09 5.09 0 00-1.13-.13z" fill="#263238"/><path d="M329.48 459.5a3.66 3.66 0 001.23 0 7.81 7.81 0 001.33-.25 3.79 3.79 0 00.76-.29.66.66 0 00.32-.37.48.48 0 00-.17-.5 2.28 2.28 0 00-2.83.57 2.32 2.32 0 00-.43.82.83.83 0 000 .33 3.53 3.53 0 01.6-1 2.19 2.19 0 011.07-.65 2 2 0 011.48.14c.19.15.1.38-.12.51a4.22 4.22 0 01-.7.27 9.28 9.28 0 01-1.29.3c-.73.09-1.25.08-1.25.12z" fill="#263238"/><path d="M329.79 459.57a1.21 1.21 0 00.17-.85 2 2 0 00-.31-.92 1.24 1.24 0 00-1-.66.49.49 0 00-.4.56 1.38 1.38 0 00.2.56 3.4 3.4 0 00.56.76 1.91 1.91 0 00.69.53s-.24-.23-.57-.64a4.24 4.24 0 01-.49-.75c-.16-.27-.27-.74.05-.79s.61.3.79.55a2 2 0 01.33.82 4 4 0 01-.02.83zM309 457.63c0 .05.56 0 1.42.1a6 6 0 014.92 4.17 14.23 14.23 0 01.32 1.39 1 1 0 000-.39 6.56 6.56 0 00-.18-1 5.85 5.85 0 00-5.06-4.29 5.27 5.27 0 00-1.06 0 1.49 1.49 0 00-.36.02zM311.24 449.68a36.28 36.28 0 00-.29 3.95 35.4 35.4 0 00-.05 4 36 36 0 00.29-3.95 32.79 32.79 0 00.05-4zM318.17 461.59a10.77 10.77 0 002.8.37 11.18 11.18 0 002.82-.14c0-.07-1.26 0-2.81-.09s-2.8-.2-2.81-.14z" fill="#263238"/><path d="M314.4 461.47s.09.27.21.56.18.56.25.55.11-.3 0-.63-.42-.52-.46-.48zM313 459.66s.07.25.26.46.39.34.44.29-.07-.24-.27-.45-.35-.34-.43-.3zM311 458.79c0 .07.27.07.55.18s.48.26.53.22-.1-.31-.45-.44-.63-.02-.63.04zM309.58 458.36c0 .06.09.16.24.23s.31.07.33 0-.08-.17-.24-.23-.3-.06-.33 0z" fill="#263238"/><path d="M309.04 457.12l19.24.27.04-2.32-19.39.82.11 1.23z" opacity=".3"/><path d="M358.59 460.76v-10.28l-19.26-.07-.11 15 1.19.08c5.31.31 27 1.22 30.59.16 3.94-1.15-12.41-4.89-12.41-4.89z" fill="#407bff"/><path d="M366.57 462.87s5.73 1.68 5 2.62-22.7.85-32.39 0v-.43l25.64.33s.63-2.47 1.75-2.52z" fill="#fff" opacity=".4"/><path d="M338.92 465h.33l.95.06 3.5.17c2.95.12 7 .23 11.55.25s8.6 0 11.56-.13l3.5-.13.95-.06h.33-1.28l-3.5.05c-3 0-7.05.09-11.56.07s-8.59-.11-11.55-.18l-3.5-.1h-1.28z" fill="#263238"/><path d="M364.86 465.65a7.26 7.26 0 01.66-1.67 7.77 7.77 0 011.2-1.34 2.58 2.58 0 00-1.4 1.22 2.54 2.54 0 00-.46 1.79zM359.19 462.74c.05 0 .32-.3.61-.74s.46-.82.41-.86-.33.3-.61.74-.47.82-.41.86zM357.63 461.91s.35-.16.68-.45.57-.58.53-.63-.35.16-.68.45-.57.58-.53.63zM356.65 460.09a2.42 2.42 0 001 .13 2.3 2.3 0 001-.1c0-.07-.44-.13-1-.13s-1 .01-1 .1zM356.32 458.8a2 2 0 001.12.33 1.83 1.83 0 001.16-.15 7 7 0 00-1.14-.08 6.44 6.44 0 00-1.14-.1z" fill="#263238"/><path d="M359.85 461.06a3.31 3.31 0 001.23 0 6.35 6.35 0 001.32-.29 3.32 3.32 0 00.76-.3.69.69 0 00.31-.39.49.49 0 00-.19-.49 2.27 2.27 0 00-2.81.65 2.47 2.47 0 00-.41.82.74.74 0 000 .34 3.47 3.47 0 01.57-1 2.28 2.28 0 011.06-.69 1.93 1.93 0 011.47.11c.2.15.12.38-.1.51a3.48 3.48 0 01-.69.29 9.33 9.33 0 01-1.28.33c-.77.05-1.24.05-1.24.11z" fill="#263238"/><path d="M360.17 461.13a1.29 1.29 0 00.14-.86 2 2 0 00-.33-.91 1.26 1.26 0 00-1-.63.48.48 0 00-.38.57 1.35 1.35 0 00.21.55 3.68 3.68 0 00.58.75c.38.38.69.53.7.5s-.24-.22-.58-.61a4.86 4.86 0 01-.52-.75c-.17-.26-.28-.73 0-.78s.62.28.81.52a2 2 0 01.35.81 5 5 0 01.02.84zM339.33 459.74s.55-.05 1.42.06a6.09 6.09 0 013.1 1.29 6.16 6.16 0 011.93 2.75c.29.82.32 1.38.36 1.37a1.31 1.31 0 000-.39 5.81 5.81 0 00-.2-1 5.87 5.87 0 00-5.17-4.16 5.77 5.77 0 00-1.06 0c-.25.03-.38.06-.38.08z" fill="#263238"/><path d="M341.36 451.73a33.58 33.58 0 00-.18 4 31.58 31.58 0 00.05 4 36.38 36.38 0 00.18-4 31.67 31.67 0 00-.05-4zM348.6 463.46a10.94 10.94 0 002.81.29 11.08 11.08 0 002.82-.22c0-.06-1.27 0-2.82 0s-2.8-.14-2.81-.07zM344.82 463.43c0 .05.11.27.23.56s.2.55.27.54.1-.3-.05-.63-.4-.51-.45-.47zM343.41 461.66c-.05 0 .08.24.28.45s.39.33.44.28-.08-.24-.28-.45-.39-.33-.44-.28zM341.38 460.84c0 .07.27.07.55.17s.49.25.54.21-.11-.31-.46-.43-.65-.01-.63.05zM339.93 460.45c0 .06.09.16.25.23s.31.06.33 0-.09-.16-.25-.22-.26-.07-.33-.01z" fill="#263238"/><path d="M339.36 459.22l19.24-.23-.02-2.32-19.37 1.33.15 1.22z" opacity=".3"/><path d="M316.07 284.79l7.71 23.21c2.08 6.27 7.56 7.35 14.17 7.35h42.89v-9.63l-39.18-5.59-9.34-23.86zM385.56 303.73l3.4-1.61s3.67-7.09 4.51-6.8 1.09 2.37-.38 5.62l4.52-1.29s9.8 4.53 9.37 5.14-1.24 2.06-3.37 1-4.94-2.38-4.94-2.38l-5.28 1.51 6.81.87 6.41 5.82s-2.11 1.58-3.92-.09l-16.64 3.57-5.21.3v-9.63z" fill="#ffbe9d"/><path d="M402.69 311.49c-.07 0-.38-.45-1-1.1a5.08 5.08 0 00-1.21-.94 4.9 4.9 0 00-1.8-.47 25.29 25.29 0 01-5-.85 25.15 25.15 0 015.06.34 4.84 4.84 0 012 .57 4.6 4.6 0 011.25 1.11 2.89 2.89 0 01.7 1.34zM400.09 312.15c-.07 0-.12-.34-.58-.44s-1.24-.18-2-.26a17.69 17.69 0 01-2.92-.29 5.87 5.87 0 013-.23 9.2 9.2 0 012.09.43.82.82 0 01.5.53c0 .18-.06.27-.09.26z" fill="#eb996e"/><path d="M279.86 189.32l-2.33 47.18 20.2 1.9 1.12-11.4s7.12 1.76 9.28-4.83c1.39-4.21 2.62-37.19 2.62-37.19z" fill="#ffbe9d"/><path d="M312.49 190.44c.56 4.42-5.61 7-5.61 7l-1.08 10.45a20.35 20.35 0 00-2.9 0c.52-4.9-5.8-3.94-6.44-.6s3 5.36 3 5.36c-2.52 3.87-3.55 5.92-7.13 9.55-3.88 3.93-6 4.25-10 4.13l-4.41-.2s-1.58-3.77-2.73-12.68c-.55-4.28-3.9-9.9-2.94-16.86 2.7-19.79 21.66-17.7 21.66-17.7 9.91.21 17.28 1.31 18.58 11.55z" fill="#263238"/><path d="M298 179.4c4.28.11 8.72.45 12.48 2.5s6.66 6.28 5.89 10.49l-2.14.39-.88-1.58v2.52l-3.76 1.05a27.55 27.55 0 00-3.34-9.11" fill="#263238"/><path d="M280.66 201.11a2.55 2.55 0 01-.33-.74 12.7 12.7 0 01-.54-2.15 15.72 15.72 0 014.21-13.53 12.22 12.22 0 011.65-1.47 2.46 2.46 0 01.7-.43c.05.07-.87.76-2.08 2.14a17.25 17.25 0 00-3.47 6.18 17.43 17.43 0 00-.62 7.06c.19 1.83.57 2.91.48 2.94z" fill="#455a64"/><path d="M284.64 199.46a8.2 8.2 0 01-.79-2.42 20.13 20.13 0 01-.39-6.14 20.45 20.45 0 011.44-6 8.1 8.1 0 011.21-2.25 32 32 0 00-2.13 8.27 32.15 32.15 0 00.66 8.54zM310.43 192.14c-.1 0-.27-1.22-1.09-3a13.8 13.8 0 00-12.07-8.14c-2-.09-3.19.21-3.21.12a2.64 2.64 0 01.84-.26 11.57 11.57 0 012.38-.22 13.33 13.33 0 0112.4 8.39 11.52 11.52 0 01.67 2.29 2.5 2.5 0 01.08.82z" fill="#455a64"/><path d="M281.29 175.58a5.25 5.25 0 012.9 1.72 5.15 5.15 0 011.7 2.91c-.14.06-.79-1.28-2.07-2.55s-2.6-1.93-2.53-2.08z" fill="#263238"/><path d="M286 175.6c.15.05-.16 1.11-.1 2.42s.42 2.33.28 2.4a3.38 3.38 0 01-.8-2.38 3.34 3.34 0 01.62-2.44z" fill="#455a64"/><path d="M312.44 279.73l3.29 11.17 20.94-9.47c-.75-2.34-4.22-12.76-10.84-29.3a28.43 28.43 0 00-21.71-17.49 124.44 124.44 0 00-20-2c-11.74.13-29 7.47-31.34 19-1.78 8.78-.07 24.29-.07 43.13l1.53 36 60.16 2z" fill="#407bff"/><path d="M252.74 286.45c7.32 1.5 14.83 0 22.29-.45 4.52-.27 9.54-.76 13.12 2 2.84 2.2 4 5.91 4.8 9.41 3.12 13.33 3.68 22.27 4.38 35.94l-36.21 2.2z" opacity=".3"/><path d="M324.07 248.68c0 .15-15.8.26-35.28.26s-35.27-.11-35.27-.26 15.79-.26 35.27-.26 35.28.12 35.28.26zM328.46 258.79c0 .14-17.18.26-38.35.26s-38.35-.12-38.35-.26 17.16-.26 38.35-.26 38.35.12 38.35.26zM334 271.47c0 .15-18.32.26-40.92.26s-40.92-.11-40.92-.26 18.32-.26 40.92-.26 40.92.12 40.92.26zM312 285.15c0 .14-5.73.26-12.78.26s-12.79-.12-12.79-.26 5.72-.26 12.79-.26 12.78.11 12.78.26zM313.17 300c0 .14-6 .21-13.38.15s-13.38-.22-13.38-.37 6-.21 13.38-.15 13.38.2 13.38.37zM313.75 312.05a4 4 0 01-1.05.05l-2.87-.06c-2.42-.05-5.76-.12-9.45-.12s-7 .06-9.45.11l-2.87.06a4.1 4.1 0 01-1.06 0 4 4 0 011.05-.16c.67-.07 1.65-.14 2.86-.21 2.42-.15 5.77-.27 9.47-.27s7.05.13 9.46.28c1.21.07 2.19.15 2.87.22a4.33 4.33 0 011.04.1zM313.56 321.81c0 .14-5.9.26-13.18.26s-13.17-.12-13.17-.26 5.89-.26 13.17-.26 13.18.11 13.18.26zM315.35 238.77c0 .15-11.58.26-25.86.26s-25.87-.11-25.87-.26 11.58-.26 25.87-.26 25.86.12 25.86.26z" fill="#fafafa"/><path d="M314 240.65c0 .06-.6.09-1.6.48a8.45 8.45 0 00-3.47 2.81 11.74 11.74 0 00-2.07 6.27 39.39 39.39 0 00.64 8.24 134 134 0 003.36 14.75c.49 1.81.9 3.3 1.21 4.43a11.94 11.94 0 01.39 1.64 9.48 9.48 0 01-.58-1.58c-.34-1-.82-2.53-1.38-4.39a116 116 0 01-3.5-14.77 38.79 38.79 0 01-.6-8.36 11.86 11.86 0 012.26-6.45 8.17 8.17 0 013.69-2.78 6.08 6.08 0 011.23-.28 1.47 1.47 0 01.42-.01zM336 278.57a19.65 19.65 0 01-2.95 1.7c-1.86 1-4.47 2.25-7.39 3.57s-5.6 2.42-7.56 3.17a20.89 20.89 0 01-3.22 1.09 23 23 0 013.08-1.43c1.92-.84 4.58-2 7.49-3.3s5.53-2.55 7.43-3.43a25.07 25.07 0 013.12-1.37zM272.81 331.36l71.88 2.54a21.45 21.45 0 0120.68 21.76l-3 102.66-27.77-.92 2.07-96.12-63.87-1.68z" fill="#263238"/><path d="M243.11 331.36L315 333.9a21.45 21.45 0 0120.68 21.76l-3 102.66-28.14-2.23 2.46-94.81-63.87-1.68z" fill="#263238"/><path fill="#455a64" d="M289.84 368.65h7.07v84.71h-7.07zM230.51 286.43v62.36a14.81 14.81 0 0014.81 14.81h41.53v-77.17a6.6 6.6 0 00-6.6-6.6h-43.14a6.6 6.6 0 00-6.6 6.6z"/><path d="M342.73 368.65H241.61a11 11 0 0111-11h79.17a11 11 0 0111 11z" fill="#455a64"/><path d="M286.85 356.22a3.06 3.06 0 010 .48 6.42 6.42 0 01-.17 1.36 7.47 7.47 0 01-5.92 5.63 28.9 28.9 0 01-4 .15h-9.09c-6.45 0-12.29 0-16.51-.06l-5-.07-1.36-.05a2.7 2.7 0 01-.48-.05 1.58 1.58 0 01.48-.06l1.36-.05 5-.09c4.22-.05 10.06-.08 16.51-.09h9.08a31.2 31.2 0 003.93-.09 7.2 7.2 0 003.06-1.3 7.33 7.33 0 002.73-4c.35-1.05.32-1.71.38-1.71zM299.58 368.87a36.5 36.5 0 01-6.21.26 36.42 36.42 0 01-6.2-.26 37.7 37.7 0 016.2-.26 37.78 37.78 0 016.21.26z" fill="#263238"/><path d="M330.34 364.14a16.92 16.92 0 01-.62-3c-.34-1.92-.79-4.71-1.33-8.15s-.91-7.61-2.81-11.74a28.46 28.46 0 00-3.75-6 27.27 27.27 0 00-5.64-5.08 25 25 0 00-6.84-3.29 25.85 25.85 0 00-7-1.21c-4.57-.1-8.75-.08-12.23-.15s-6.31-.1-8.26-.16a16.19 16.19 0 01-3-.21 16.93 16.93 0 013-.2c1.95-.06 4.77-.12 8.26-.16s7.62-.13 12.26-.07a26.73 26.73 0 0114.36 4.59 27.23 27.23 0 015.84 5.29 28.73 28.73 0 013.85 6.26c.23.53.42 1.08.63 1.61l.3.8c.07.27.15.54.22.81.15.53.3 1.06.44 1.58s.19 1.05.29 1.56c.35 2.05.54 3.93.78 5.67.44 3.45.79 6.26 1 8.19a17 17 0 01.25 3.06zM324.3 461h-1a30.09 30.09 0 10-60.17 0h-1a31.09 31.09 0 1162.17 0z" fill="#455a64"/><path d="M267.29 462.58a4.66 4.66 0 11-4.66-4.66 4.65 4.65 0 014.66 4.66zM328.69 461.94a4.66 4.66 0 11-4.66-4.66 4.66 4.66 0 014.66 4.66z" fill="#263238"/><path d="M324 453.36c0 .15-13.53.27-30.21.27s-30.21-.12-30.21-.27 13.52-.26 30.21-.26 30.21.12 30.21.26z" fill="#455a64"/></g><g><path d="M220.8 258.77a6.53 6.53 0 012.9 4.17 11.53 11.53 0 01-.16 5.19c-.76 3.28-3 6.42-5.4 8.84-2.51-2.77-2.66-7.11-2.6-9.32.1-3.49 2.41-9.74 5.26-8.88M220.76 282.85a5.54 5.54 0 012.39-5 7.38 7.38 0 015.59-1.06 3.1 3.1 0 012.24 1.34 2.37 2.37 0 01-.24 2.39 4.73 4.73 0 01-2 1.53c-2.61 1.24-5.36 2-8 .82" fill="#407bff"/><path d="M216.54 290.17a10.78 10.78 0 01.64-2.14 9.93 9.93 0 011.11-2.17 21.22 21.22 0 011.74-2.41 11.09 11.09 0 014.36-3.18 8.26 8.26 0 011.59-.41 1.83 1.83 0 01.6 0c0 .07-.84.16-2.09.69a11.86 11.86 0 00-4.17 3.18 24 24 0 00-1.74 2.35 11.45 11.45 0 00-1.16 2.08 15.38 15.38 0 01-.88 2.01z" fill="#263238"/><path d="M219.46 263.68a5.72 5.72 0 010 1.13c0 .72-.1 1.77-.19 3.06-.19 2.59-.5 6.16-.92 10.1s-.92 7.48-1.33 10c-.21 1.28-.38 2.31-.52 3a6.56 6.56 0 01-.25 1.1 5.85 5.85 0 01.1-1.13c.11-.78.24-1.81.4-3 .34-2.57.79-6.12 1.22-10.06s.76-7.43 1-10.07c.13-1.24.24-2.27.32-3.06a7.44 7.44 0 01.17-1.07z" fill="#263238"/><path d="M216.38 283.64a13 13 0 00-7.28-9.35c-1-.43-2.19-.7-2.95 0s-.56 2-.16 2.95a11.06 11.06 0 0010.33 6.65" fill="#407bff"/><path d="M209.83 277.27a1.89 1.89 0 01.53.26 16.94 16.94 0 015.17 4.6 9.18 9.18 0 011.21 2.7 9 9 0 01.27 2.4 8.86 8.86 0 01-.19 1.61 2.17 2.17 0 01-.16.58c-.08 0 .1-.85.08-2.19a10 10 0 00-.33-2.31 9.48 9.48 0 00-1.2-2.58 16.42 16.42 0 00-3.65-3.73 17.7 17.7 0 01-1.73-1.34zM216.05 315.36a12.51 12.51 0 01-12.5-12.51v-12.5h25v12.5a12.51 12.51 0 01-12.5 12.51z" fill="#263238"/><path d="M228.56 296.5a2.35 2.35 0 01-.34.35l-1 .93-3.81 3.22-.09.07-.11-.06-7.21-4.33h.21l-6.79 4.32-.1.07-.1-.08-4.15-3.25-1.14-.92a2.1 2.1 0 01-.38-.36 1.72 1.72 0 01.45.27c.32.23.72.52 1.2.85l4.23 3.14h-.2l6.71-4.42.11-.07.11.06 7.21 4.42h-.2l3.87-3.13 1.09-.86c.28-.14.42-.24.43-.22z" fill="#e0e0e0"/><path d="M228.56 294a2.35 2.35 0 01-.34.35l-1 .93-3.77 3.25-.09.07-.11-.06-7.25-4.36h.21l-6.75 4.37-.1.07-.1-.08-4.15-3.25-1.14-.92a2.1 2.1 0 01-.38-.36 1.72 1.72 0 01.45.27l1.2.85 4.23 3.14h-.2l6.71-4.42.11-.07.11.06 7.21 4.42h-.2l3.87-3.13 1.09-.86c.24-.19.38-.27.39-.27zM228.56 299s-.11.14-.34.36l-1 .92-3.77 3.25-.09.08-.11-.07-7.25-4.31h.21l-6.75 4.37-.1.07-.1-.07c-1.67-1.32-3.08-2.42-4.15-3.25l-1.14-.93c-.26-.22-.39-.34-.38-.36a2.18 2.18 0 01.45.27c.32.24.72.52 1.2.86l4.23 3.13h-.2l6.71-4.42.11-.07.11.07 7.21 4.41h-.2l3.87-3.14 1.09-.85a1.93 1.93 0 01.39-.32z" fill="#e0e0e0"/><path d="M552.56 344.72c-5.18.84-7.5 7.2-7 12.43s2.61 10.35 2 15.56c-.73 6.63-5.74 12.23-6.32 18.87-.69 7.83 4.85 14.78 6.5 22.46.81 3.74.7 7.7 2.09 11.26a14.07 14.07 0 0027.17-4.86c.11-6-3.6-11.67-3.15-17.67.33-4.43 2.93-8.63 2.38-13-.67-5.25-5.53-9-7.25-14s-.06-10.52-.66-15.78c-1.06-9.43-6.29-16-15.75-15.25" fill="#407bff"/><path d="M526.1 390.39c-.89 8.74 3 19 7.47 26.57a41.66 41.66 0 0019.57 17c.91.38 2.05.7 2.82.08a2.79 2.79 0 00.71-2.24 42.89 42.89 0 00-30.57-41.39" fill="#407bff"/><path d="M526.1 390.39c-.89 8.74 3 19 7.47 26.57a41.66 41.66 0 0019.57 17c.91.38 2.05.7 2.82.08a2.79 2.79 0 00.71-2.24 42.89 42.89 0 00-30.57-41.39" opacity=".2"/><path d="M564.17 452.21a2 2 0 01-.25-.48l-.63-1.44c-.52-1.24-1.31-3-2.31-5.25a186.15 186.15 0 00-8.67-16.79 188.79 188.79 0 00-10.38-15.81c-1.43-1.95-2.61-3.52-3.44-4.59-.38-.5-.7-.92-.94-1.25a2.76 2.76 0 01-.31-.45s.15.12.38.39l1 1.19c.88 1 2.1 2.57 3.57 4.5a158.18 158.18 0 0119.11 32.67c1 2.23 1.7 4.05 2.17 5.32l.54 1.47a3.05 3.05 0 01.16.52zM558.54 368.9a5.17 5.17 0 01.1.84c0 .59.1 1.39.17 2.41.14 2.13.33 5.15.57 8.85.47 7.48 1.13 17.81 1.94 29.21s1.59 21.73 2.17 29.2c.28 3.7.51 6.71.68 8.85.07 1 .12 1.81.16 2.4a5 5 0 010 .85s-.05-.29-.12-.84-.15-1.39-.26-2.4c-.2-2.13-.48-5.14-.83-8.83-.67-7.47-1.52-17.78-2.32-29.19s-1.39-21.74-1.8-29.25c-.17-3.71-.31-6.72-.41-8.86 0-1-.06-1.82-.08-2.42a4.47 4.47 0 01.03-.82z" fill="#263238"/><path d="M550.5 439.75h21.89v16.07a10.51 10.51 0 01-10.51 10.5 10.5 10.5 0 01-10.49-9.94z" fill="#263238"/></g><g fill="#407bff"><path d="M439.64 227.89l52.2 28.91-1.96 3.68-51.74-29.45 1.5-3.14M437.07 225.16l2.4-3.67 1.4.86-2.15 3.7-1.65-.89z"/><path d="M485.91 252.23l2.68 1.54-8.74 55.78-4.14.05 10.2-57.37z"/><path d="M463.68 315.36s6.37-6.44 14.89-6a18.48 18.48 0 0112.9 5.93zM437.12 250.45l-20.67-11.94 6-10.33a11.93 11.93 0 0116.3-4.37 11.94 11.94 0 014.37 16.3z"/></g></svg>
