<svg xmlns="http://www.w3.org/2000/svg" viewBox="0 0 1080 1080"><path xmlns="http://www.w3.org/2000/svg" opacity=".05" fill="#3FC9EE" d="M863.571 686.403s50.756-98.305 0-89.44c-50.756 8.865-155.623-8.25-111.584-86.557s43.219-138.893-42.506-114.075c-85.725 24.818-125.142 33.866-153.61-33.434-28.468-67.3-146.721-97.228-162.05-14.013s-7.956 125.2-93.762 134.5c-85.806 9.301-110.123 60.839-68.287 93.032s-54.795 105.924 41.583 124.239 590.216-14.252 590.216-14.252z"/><ellipse xmlns="http://www.w3.org/2000/svg" fill="#F4F4F4" cx="549.119" cy="711.214" rx="349.83" ry="56.558"/><g xmlns="http://www.w3.org/2000/svg"><path fill="#EDEDED" d="M313.901 635.516h363.802c2.956 0 5.375-2.419 5.375-5.375V363.189c0-2.956-2.419-5.375-5.375-5.375H313.901c-2.956 0-5.375 2.419-5.375 5.375v266.953c0 2.955 2.419 5.374 5.375 5.374z"/><path fill="#FFF" d="M677.669 357.814H313.935c-2.975 0-5.409 2.434-5.409 5.409v13.127h374.551v-13.127c0-2.975-2.433-5.409-5.408-5.409z"/><g fill="#C9C9C9"><path d="M330.01 366.978a4.064 4.064 0 11-8.128-.034 4.064 4.064 0 018.128.034zM342.652 367.03a4.064 4.064 0 11-8.128-.034 4.064 4.064 0 018.128.034zM355.295 367.082a4.064 4.064 0 11-8.128-.034 4.064 4.064 0 018.128.034z"/></g><g><g fill="#FFF"><path d="M652.599 609.768v6.258M337.679 616.026v-6.258"/></g></g></g><g xmlns="http://www.w3.org/2000/svg"><path fill="#ECE8EC" d="M771.924 714.478s10.844 1.853 22.495 1.853c10.799 0 21.219-1.853 21.219-1.853l-.847-1.88c-3.723-8.265-17.811-5.05-21.01-13.579-2.665 8.529-17.287 5.314-21.01 13.579l-.847 1.88z"/><path fill="#ECE8EC" d="M796.98 705.243h-5.864v-54.908h5.864z"/><path fill="#F5D09F" d="M792.784 700.742l-2.558-5.596-5.607 2.065 1.556 5.757z"/><path fill="#0b4870" d="M792.774 700.656l1.346 4.572-5.928 1.873s-13.382 5.618-15.875 3.013c-1.142-1.193 3.214-2.371 6.01-4.222 2.796-1.851 7.188-4.465 7.188-4.465s3.857.145 7.259-.771z"/><path fill="#F5D09F" d="M763.162 709.011l-.873-6.09-5.962.397-.133 5.962z"/><path fill="#0b4870" d="M763.177 708.926v4.766l-6.216.123s-14.423 1.611-16.08-1.591c-.759-1.467 3.753-1.367 6.958-2.353 3.205-.986 8.156-2.254 8.156-2.254s3.66 1.227 7.182 1.309z"/><path fill="#E9BB88" d="M709.261 604.022l8.237-2.733 7.292 1.846c4.105-1.067 5.471-1.008 13.877-3.169 7.098-1.825 15.249-5.465 15.249-5.465l6.042-10.129c3.909.355 12.121 4.62 12.121 4.62s-11.232 15.282-14.431 16.348c-3.198 1.066-24.762 3.695-32.983 2.752-2.589-.297-7.656-3.038-7.656-3.038l-6.5 1.08-5.068 3.421-.885-.732 2.016-2.208 2.689-2.593z"/><path fill="#0b4870" d="M766.189 565.084s10.473 1.753 10.296 11.171c-.116 6.134-8.529 17.592-8.529 17.592s-4.62-6.397-10.306-8.174c0 0 3.693-10.834 4.823-14.222 1.419-4.259 3.716-6.367 3.716-6.367z"/><path fill="#ECE8EC" d="M804.443 659.93h-20.791v-11.195h20.791zM786.438 605.195a967.487 967.487 0 01-2.205-40.678c12.852-5.721 41.518-3.168 44.199 5.321 2.845 9.008-7.996 34.651-7.996 44.246 0 9.596 3.732 16.526 4.265 20.79s-2.132 7.463-2.132 7.463h-32.862c-.837-12.395-2.335-24.773-3.269-37.142z"/><path fill="#FFF" d="M786.438 605.195a969.44 969.44 0 01-2.258-42.395c14.123-3.301 36.565-.425 38.921 7.038 2.845 9.008-7.996 34.651-7.996 44.246 0 9.596 3.732 16.526 4.265 20.79.533 4.265-2.132 7.463-2.132 7.463h-27.531c-.837-12.395-2.335-24.773-3.269-37.142zM760.729 652.467h54.753a7.086 7.086 0 007.086-7.086v-3.043H760.73v10.129z"/><path fill="#0b4870" d="M772.457 619.06s-29.583 17.576-31.342 24.833c-2.099 8.66 12.089 59.94 12.089 59.94 3.346 2.251 9.549 1.491 11.831-.557 0 0-11.413-43.879-10.17-46.811 3.044-7.175 28.965-15.726 37.139-23.545 8.174-7.819 8.885-15.282 8.885-15.282l-28.432 1.422z"/><path fill="#0b4870" d="M806.277 611.2s10.077 21.01 1.014 29.539c-4.149 3.905-28.97.355-30.391 4.265l14.985 49.783s-2.643 1.607-7.974 4.272c0 0-31.178-54.944-27.979-62.052 3.199-7.108 24.7-11.195 25.766-15.104 1.066-3.909 1.777-10.306 1.777-10.306l22.802-.397z"/><path fill="#F5D09F" d="M763.531 554.212c.643 2.44 1.787 5.127 4.182 5.921 2.201.73 4.539-.448 6.532-1.635 2.344-1.396 4.721-2.927 6.22-5.206 2.275-3.459 4.115-7.684 3.86-11.816-.09-1.461-2.228-3.252-3.115-4.416-.626-.822-1.561-1.346-2.494-1.79a26.084 26.084 0 00-7.003-2.189c-4.044-.659-8.54.245-9.349 4.686-.961 5.286-.188 11.304 1.167 16.445z"/><path fill="#F5D09F" d="M792.049 560.863s-.045-.798-2.888-1.509c-.816-.204-1.836-.206-2.485-.773-2.301-2.012-4.415-5.757-5.199-8.516-.116-.409-.23-.842-.122-1.253a95.383 95.383 0 00-5.565 5.109c-.612.608-4.313.264-3.865 1.088.125.231 1.068 2.387 1.996 4.476-1.795 1.176-3.772 2.712-3.772 2.712l-2.488 13.86 7.286 4.087s8.174-1.777 13.505-4.62c5.329-2.842 3.597-14.661 3.597-14.661z"/><path fill="#0b4870" d="M789.161 559.354s-2.132 3.909-7.463 6.219c-5.331 2.31-10.129-4.62-10.129-4.62l-5.379 4.13s-.485 18.894 1.826 29.2c2.31 10.307 4.442 24.777 4.442 24.777s2.383 3.493 5.428 3.699c3.725.252 8.856-2.665 16.962-1.212 8.994 1.613 15.689.198 15.689.198s-6.918-33.808-8.518-40.56c-1.599-6.753-5.75-20.587-5.75-20.587s-3.554-.888-7.108-1.244z"/><path fill="#ECE8EC" d="M694.719 609.689h31.403v-2.684h-33.28v.806a1.877 1.877 0 001.877 1.878z"/><path fill="#0b4870" d="M704.861 576.424c.925 0 1.751.58 2.066 1.449l10.568 29.169-.652.272.172.509-24.174-.817-10.289-27.623a2.198 2.198 0 012.061-2.965l20.248.006z"/><path fill="#FFF" d="M696.592 593.693c.717 2.752 2.123 4.947 3.14 4.902 1.017-.045 1.26-2.312.543-5.065-.717-2.752-2.123-4.947-3.14-4.902-1.017.045-1.26 2.313-.543 5.065z"/><g><path fill="#0b4870" d="M769.507 538.69c-3.458-.228-7.095-.248-10.118-1.822-1.469-.765-2.788-1.986-3.069-3.527s.847-3.328 2.528-3.439c.346-.023.723.016 1.013-.162.371-.227.432-.698.488-1.107.376-2.742 2.682-5.507 5.661-5.439 2.43.055 4.691 1.925 7.044 1.359.724-.174 1.359-.567 2.023-.887 1.996-.964 4.346-1.283 6.556-.891 2.332.414 4.805 2.254 4.234 4.391-.191.714-.702 1.335-.839 2.06-.487 2.585 3.632 3.874 4.446 6.387.741 2.287-1.521 4.565-1.347 6.947.096 1.324.869 2.88-.139 3.822-.538.503-1.456.628-1.817 1.252-.491.85.423 1.816.504 2.778.099 1.193-1.262 2.192-2.547 2.091-1.285-.101-2.354-1.051-2.859-2.151-.506-1.1-.543-2.333-.503-3.528 2.176-.612 3.515-4.197 1.468-5.113-1.092-.489-2.253.697-2.667 1.703-2.162-3.432-5.613-4.724-10.06-4.724z"/><path fill="#0b4870" d="M778.34 544.209l-2.155 4.962c-.288.663-.593 1.35-1.143 1.818-.84.716-2.069.762-3.151.543-1.082-.219-3.15-.814-4.25-.72-2.513.215-4.363 1.419-4.523 1.723-.323.614.13 1.57.14 2.264.01.728-.106 1.478-.481 2.103-.251.418-.606.762-.94 1.117-.892.95-1.696 2.134-1.623 3.435.1 1.779 1.739 3.022 3.223 4.008.95.631 1.934 1.276 3.056 1.483.752.139 1.525.072 2.287.004 1.588-.141 3.19-.284 4.715-.752 1.524-.468 2.985-1.292 3.943-2.566.818-1.088 1.218-2.425 1.599-3.732.616-2.114 1.223-4.257 1.299-6.457.072-2.062-.326-4.108-.535-6.161a33.87 33.87 0 01-.115-5.395c.013-.219.037-.749-.287-.794-.358-.05-.233.489-.282.713a12.771 12.771 0 01-.777 2.404z"/><path fill="#F5D09F" d="M765.085 553.646a2.032 2.032 0 00.417 2.249c.263.256.623.441.987.399s.705-.366.675-.731c-.011-.135-.065-.283.007-.397.07-.111.222-.13.353-.137.491-.026 1.09.005 1.32.439.07.132.094.286.173.412.189.301.609.338.963.309a5.595 5.595 0 001.494-.333c.244-.091.488-.203.666-.393.178-.19.277-.472.189-.716-.074-.203-.257-.342-.433-.467-1.536-1.093-5.574-3.31-6.811-.634z"/></g><g><path fill="#FFF" d="M787.548 645.371s-1.024-28.682 5.378-30.576c6.403-1.894 20.489-1.353 20.489-1.353l1.281 5.141s-18.44-1.353-21.002 2.165c-2.561 3.518 0 24.893 0 24.893l-6.146-.27z"/></g><g><path fill="#F5D09F" d="M735.957 603.129l8.237-2.733 7.292 1.846c4.105-1.067 5.471-1.008 13.878-3.169 7.098-1.825 15.249-5.465 15.249-5.465l9.249-13.82c3.909.355 8.914 8.312 8.914 8.312s-11.232 15.282-14.431 16.348c-3.198 1.066-27.598 3.896-35.818 2.953-2.589-.297-7.168-3.131-7.168-3.131l-4.152.972-5.068 3.421-.885-.732 2.016-2.208 2.687-2.594z"/><path fill="#0b4870" d="M796.269 560.598s11.017 1.777 10.839 11.195c-.116 6.134-8.529 17.592-8.529 17.592s-4.62-6.397-10.306-8.174c0 0 4.442-8.707 4.798-12.261.355-3.554 3.198-8.352 3.198-8.352z"/><path fill="#FFF" d="M719.373 609.689h31.403v-2.684h-33.28v.806a1.877 1.877 0 001.877 1.878z"/><path fill="#ECE8EC" d="M747.67 608.69h-11.094v-.831h11.093zM734.912 608.69h-1.641v-.831h1.641z"/></g><g><path fill="#FFF" d="M785.659 717.776h2.042l-23.008-100.098h-4.332zM723.316 716.729h2.043l14.802-99.051h-4.333zM692.313 717.334h2.042l-16.265-99.656h-4.333zM634.993 716.275h2.043l19.576-98.597h-4.333z"/><path fill="#7DADDF" d="M776.938 617.679H669.012v-4.475h107.926z"/><path fill="#93BCEB" d="M733.93 617.679h-99.526v-4.475h99.526z"/><path fill="#93BCEB" d="M786.84 615.45H671.41v-5.99H786.84z"/><path fill="#CCE1F7" d="M726.3 615.45H619.27v-5.99H726.3z"/></g></g><path fill="#0b4870" d="M475.362 466.977c-6.125-10.495-14.434-18.804-24.928-24.929-10.496-6.125-21.954-9.187-34.383-9.187-12.427 0-23.889 3.063-34.383 9.187-10.495 6.124-18.803 14.434-24.929 24.929-6.124 10.495-9.187 21.955-9.187 34.381 0 14.926 4.355 28.348 13.066 40.269 8.711 11.922 19.964 20.172 33.758 24.75 1.606.298 2.794.088 3.567-.624.773-.713 1.159-1.606 1.159-2.675 0-.178-.015-1.783-.045-4.816a785.053 785.053 0 01-.045-7.937l-2.051.355c-1.308.24-2.958.341-4.95.312a37.837 37.837 0 01-6.198-.624c-2.141-.385-4.133-1.276-5.976-2.674-1.842-1.397-3.15-3.226-3.924-5.484l-.892-2.052c-.594-1.366-1.53-2.884-2.809-4.548-1.279-1.665-2.572-2.794-3.88-3.389l-.624-.447a6.536 6.536 0 01-1.159-1.071 4.875 4.875 0 01-.802-1.249c-.179-.417-.031-.759.446-1.027.476-.268 1.337-.399 2.587-.399l1.783.266c1.189.238 2.66.95 4.415 2.14 1.754 1.189 3.195 2.735 4.325 4.636 1.368 2.439 3.017 4.297 4.95 5.575 1.932 1.279 3.88 1.917 5.841 1.917s3.656-.149 5.084-.445a17.674 17.674 0 004.013-1.339c.535-3.986 1.992-7.047 4.37-9.187-3.389-.356-6.436-.893-9.142-1.606-2.705-.714-5.5-1.873-8.383-3.48-2.885-1.605-5.278-3.598-7.18-5.975-1.902-2.379-3.464-5.501-4.682-9.365-1.219-3.866-1.828-8.325-1.828-13.379 0-7.196 2.349-13.319 7.047-18.374-2.201-5.41-1.993-11.475.624-18.194 1.724-.536 4.282-.134 7.67 1.204 3.389 1.338 5.871 2.484 7.447 3.434a79.13 79.13 0 013.791 2.408c5.531-1.545 11.239-2.318 17.125-2.318s11.595.773 17.126 2.318l3.389-2.14c2.318-1.428 5.054-2.736 8.204-3.925 3.151-1.189 5.561-1.516 7.227-.98 2.675 6.719 2.913 12.784.712 18.194 4.697 5.055 7.047 11.18 7.047 18.374 0 5.054-.612 9.527-1.828 13.422-1.218 3.896-2.793 7.015-4.725 9.365-1.934 2.349-4.343 4.327-7.226 5.931-2.884 1.606-5.68 2.765-8.385 3.479-2.706.714-5.753 1.251-9.142 1.608 3.091 2.675 4.637 6.897 4.637 12.664v18.818c0 1.069.372 1.962 1.116 2.675.743.712 1.917.922 3.523.623 13.796-4.578 25.049-12.827 33.76-24.75 8.709-11.921 13.066-25.343 13.066-40.269-.003-12.422-3.067-23.881-9.189-34.376z" xmlns="http://www.w3.org/2000/svg"/><g xmlns="http://www.w3.org/2000/svg"><path fill="#CCE1F7" d="M335.468 695.016h-76.544a3.69 3.69 0 01-3.69-3.69v-91.953a3.69 3.69 0 013.69-3.69h76.544a3.69 3.69 0 013.69 3.69v91.953a3.69 3.69 0 01-3.69 3.69z"/><path fill="#FFF" d="M273.608 608.611h7.88v3.248h-7.88zM285.842 608.611h14.217v3.248h-14.217zM279.02 615.513h29.53v3.248h-29.53z"/><path fill="#3FC9EE" d="M312.904 615.513h7.88v3.248h-7.88z"/><path fill="#FFF" d="M279.02 622.414h29.53v3.248h-29.53z"/><path fill="#3FC9EE" d="M312.904 622.414h7.88v3.248h-7.88z"/><path fill="#FFF" d="M279.02 629.316h29.53v3.248h-29.53z"/><path fill="#3FC9EE" d="M312.904 629.316h7.88v3.248h-7.88z"/><path fill="#FFF" d="M273.608 636.218h7.88v3.248h-7.88zM285.842 636.218h14.217v3.248h-14.217z"/><path fill="#3FC9EE" d="M279.02 643.12h14.765v3.248H279.02z"/><path fill="#FFF" d="M298.139 643.12h22.645v3.248h-22.645z"/><path fill="#3FC9EE" d="M279.02 650.021h14.765v3.248H279.02z"/><path fill="#FFF" d="M298.139 650.021h22.645v3.248h-22.645z"/><path fill="#3FC9EE" d="M279.02 656.923h14.765v3.248H279.02z"/><path fill="#FFF" d="M298.139 656.923h22.645v3.248h-22.645z"/><g fill="#0b4870"><path d="M345.145 707.62h-95.898v-66.933l47.949 40.311 47.949-40.311z"/><path opacity=".81" d="M249.247 707.62l47.949-55.713 47.949 55.713z"/></g></g><path xmlns="http://www.w3.org/2000/svg" fill="#CCE1F7" d="M287.522 438.585h-28.335c-8.582 0-15.538 6.957-15.538 15.539v20.108c0 6.805 4.381 12.573 10.471 14.676l.497 10.777 13.96-9.915h18.945c8.582 0 15.538-6.957 15.538-15.539v-20.108c.001-8.582-6.956-15.538-15.538-15.538z"/><path xmlns="http://www.w3.org/2000/svg" fill="#FFF" d="M321.752 410.084H284.37c-11.322 0-20.5 9.178-20.5 20.5v26.529c0 11.322 9.178 20.5 20.5 20.5h24.994l18.417 13.08.656-14.217c8.035-2.775 13.815-10.385 13.815-19.362v-26.529c0-11.323-9.178-20.501-20.5-20.501z"/><g xmlns="http://www.w3.org/2000/svg" fill="#0b4870"><path d="M291.138 443.064l-7.021 2.487 7.021 2.487v3.213l-10.85-4.005v-3.389l10.85-4.005v3.212zM305.267 434.723h3.719l-7.263 20.731h-3.719l7.263-20.731zM326.481 443.856v3.389l-10.85 4.005v-3.213l7.021-2.487-7.021-2.487v-3.213l10.85 4.006z"/></g><g xmlns="http://www.w3.org/2000/svg"><path fill="#0b4870" d="M495.802 428.907h26.191v9.588h-26.191zM536.463 428.907h47.253v9.588h-47.253z"/><path fill="#FFF" d="M513.791 449.282h98.147v9.588h-98.147z"/><path fill="#3FC9EE" d="M626.408 449.282h26.191v9.588h-26.191z"/><path fill="#FFF" d="M513.791 469.657h98.147v9.588h-98.147z"/><path fill="#3FC9EE" d="M626.408 469.657h26.191v9.588h-26.191z"/><path fill="#FFF" d="M513.791 490.032h98.147v9.588h-98.147z"/><path fill="#3FC9EE" d="M626.408 490.032h26.191v9.588h-26.191z"/><path fill="#0b4870" d="M495.802 510.406h26.191v9.588h-26.191zM536.463 510.406h47.253v9.588h-47.253z"/><path fill="#3FC9EE" d="M513.791 530.781h49.073v9.588h-49.073z"/><path fill="#FFF" d="M577.335 530.781h75.264v9.588h-75.264z"/><path fill="#3FC9EE" d="M513.791 551.156h49.073v9.588h-49.073z"/><path fill="#FFF" d="M577.335 551.156h75.264v9.588h-75.264z"/><path fill="#3FC9EE" d="M513.791 571.531h49.073v9.588h-49.073z"/><path fill="#FFF" d="M577.335 571.531h75.264v9.588h-75.264z"/></g></svg>
